<svg width="51" height="51" viewBox="0 0 51 51" fill="none" xmlns="http://www.w3.org/2000/svg">
<g clip-path="url(#clip0_1037_436)">
<path d="M50.9221 25.7241C50.9221 11.8327 39.7291 0.571289 25.9221 0.571289C12.1151 0.571289 0.922119 11.8325 0.922119 25.7241C0.922119 38.2785 10.0643 48.6844 22.0159 50.5713V32.9948H15.6682V25.7241H22.0159V20.1826C22.0159 13.8787 25.7483 10.3966 31.4586 10.3966C34.194 10.3966 37.0549 10.8879 37.0549 10.8879V17.0778H33.9026C30.7967 17.0778 29.8284 19.0167 29.8284 21.006V25.7241H36.762L35.6536 32.9948H29.8284V50.5713C41.7799 48.6844 50.9221 38.2787 50.9221 25.7241Z" fill="#1877F2"/>
<path d="M35.6536 32.7979L36.762 25.5713H29.8284V20.8818C29.8284 18.9045 30.7969 16.9775 33.9026 16.9775H37.0549V10.8252C37.0549 10.8252 34.194 10.3369 31.4586 10.3369C25.7483 10.3369 22.0159 13.7979 22.0159 20.0635V25.5713H15.6682V32.7979H22.0159V50.2676C23.3081 50.4701 24.6141 50.5716 25.9221 50.5713C27.2301 50.5717 28.5362 50.4701 29.8284 50.2676V32.7979H35.6536Z" fill="white"/>
</g>
<defs>
<clipPath id="clip0_1037_436">
<rect width="50" height="50" fill="white" transform="translate(0.922119 0.571289)"/>
</clipPath>
</defs>
</svg>
