<svg width="51" height="51" viewBox="0 0 51 51" fill="none" xmlns="http://www.w3.org/2000/svg">
<g clip-path="url(#clip0_1037_439)">
<path d="M39.2034 0.571289H12.6409C6.16878 0.571289 0.922119 5.81795 0.922119 12.29V38.8525C0.922119 45.3246 6.16878 50.5713 12.6409 50.5713H39.2034C45.6755 50.5713 50.9221 45.3246 50.9221 38.8525V12.29C50.9221 5.81795 45.6755 0.571289 39.2034 0.571289Z" fill="url(#paint0_radial_1037_439)"/>
<path d="M39.2034 0.571289H12.6409C6.16878 0.571289 0.922119 5.81795 0.922119 12.29V38.8525C0.922119 45.3246 6.16878 50.5713 12.6409 50.5713H39.2034C45.6755 50.5713 50.9221 45.3246 50.9221 38.8525V12.29C50.9221 5.81795 45.6755 0.571289 39.2034 0.571289Z" fill="url(#paint1_radial_1037_439)"/>
<path d="M25.9239 6.04004C20.6196 6.04004 19.9538 6.06328 17.8706 6.15801C15.7913 6.25332 14.3719 6.58242 13.1301 7.06543C11.8454 7.56426 10.7557 8.23164 9.67017 9.31758C8.58364 10.4033 7.91626 11.493 7.41587 12.7771C6.93149 14.0193 6.602 15.4393 6.50845 17.5176C6.41528 19.601 6.39087 20.267 6.39087 25.5715C6.39087 30.876 6.41431 31.5396 6.50884 33.6229C6.60454 35.7021 6.93364 37.1215 7.41626 38.3633C7.91548 39.648 8.58286 40.7377 9.6688 41.8232C10.7542 42.9098 11.8438 43.5787 13.1276 44.0775C14.3704 44.5605 15.7899 44.8896 17.8688 44.985C19.9522 45.0797 20.6174 45.1029 25.9215 45.1029C31.2264 45.1029 31.8901 45.0797 33.9733 44.985C36.0526 44.8896 37.4735 44.5605 38.7163 44.0775C40.0004 43.5787 41.0885 42.9098 42.1737 41.8232C43.2602 40.7377 43.9274 39.648 44.428 38.3639C44.9081 37.1215 45.2377 35.7018 45.3354 33.6232C45.429 31.54 45.4534 30.876 45.4534 25.5715C45.4534 20.267 45.429 19.6014 45.3354 17.518C45.2377 15.4387 44.9081 14.0195 44.428 12.7777C43.9274 11.493 43.2602 10.4033 42.1737 9.31758C41.0874 8.23125 40.0008 7.56387 38.7151 7.06562C37.47 6.58242 36.0499 6.25313 33.9706 6.15801C31.8872 6.06328 31.2239 6.04004 25.9178 6.04004H25.9239ZM24.1717 9.55977C24.6918 9.55898 25.2721 9.55977 25.9239 9.55977C31.1389 9.55977 31.7569 9.57852 33.8163 9.67207C35.7206 9.75918 36.7542 10.0773 37.4426 10.3447C38.3542 10.6986 39.004 11.1219 39.6872 11.8057C40.3708 12.4893 40.7938 13.1402 41.1487 14.0518C41.4161 14.7393 41.7346 15.7729 41.8213 17.6771C41.9149 19.7361 41.9352 20.3545 41.9352 25.567C41.9352 30.7795 41.9149 31.398 41.8213 33.4568C41.7342 35.3611 41.4161 36.3947 41.1487 37.0824C40.7948 37.9939 40.3708 38.643 39.6872 39.3262C39.0036 40.0098 38.3545 40.4328 37.4426 40.7869C36.7549 41.0555 35.7206 41.3729 33.8163 41.46C31.7573 41.5535 31.1389 41.5738 25.9239 41.5738C20.7086 41.5738 20.0905 41.5535 18.0317 41.46C16.1274 41.3721 15.0938 41.0539 14.4047 40.7865C13.4934 40.4324 12.8422 40.0094 12.1586 39.3258C11.475 38.6422 11.052 37.9928 10.6971 37.0809C10.4297 36.3932 10.1112 35.3596 10.0245 33.4553C9.93091 31.3963 9.91216 30.7779 9.91216 25.5621C9.91216 20.3465 9.93091 19.7312 10.0245 17.6723C10.1116 15.768 10.4297 14.7344 10.6971 14.0459C11.0512 13.1344 11.475 12.4834 12.1588 11.7998C12.8424 11.1162 13.4934 10.693 14.4049 10.3383C15.0934 10.0697 16.1274 9.75234 18.0317 9.66484C19.8334 9.5834 20.5317 9.55898 24.1717 9.55488V9.55977ZM36.3497 12.8027C35.0557 12.8027 34.0059 13.8516 34.0059 15.1457C34.0059 16.4396 35.0557 17.4895 36.3497 17.4895C37.6436 17.4895 38.6934 16.4396 38.6934 15.1457C38.6934 13.8518 37.6436 12.802 36.3497 12.802V12.8027ZM25.9239 15.5412C20.3848 15.5412 15.8938 20.0322 15.8938 25.5715C15.8938 31.1107 20.3848 35.5996 25.9239 35.5996C31.4631 35.5996 35.9526 31.1107 35.9526 25.5715C35.9526 20.0324 31.4627 15.5412 25.9235 15.5412H25.9239ZM25.9239 19.0609C29.5194 19.0609 32.4344 21.9756 32.4344 25.5715C32.4344 29.167 29.5194 32.082 25.9239 32.082C22.3282 32.082 19.4135 29.167 19.4135 25.5715C19.4135 21.9756 22.3282 19.0609 25.9239 19.0609Z" fill="white"/>
</g>
<defs>
<radialGradient id="paint0_radial_1037_439" cx="0" cy="0" r="1" gradientUnits="userSpaceOnUse" gradientTransform="translate(14.2034 54.4223) rotate(-90) scale(49.5537 46.0889)">
<stop stop-color="#FFDD55"/>
<stop offset="0.1" stop-color="#FFDD55"/>
<stop offset="0.5" stop-color="#FF543E"/>
<stop offset="1" stop-color="#C837AB"/>
</radialGradient>
<radialGradient id="paint1_radial_1037_439" cx="0" cy="0" r="1" gradientUnits="userSpaceOnUse" gradientTransform="translate(-7.45308 4.17305) rotate(78.681) scale(22.1508 91.3062)">
<stop stop-color="#3771C8"/>
<stop offset="0.128" stop-color="#3771C8"/>
<stop offset="1" stop-color="#6600FF" stop-opacity="0"/>
</radialGradient>
<clipPath id="clip0_1037_439">
<rect width="50" height="50" fill="white" transform="translate(0.922119 0.571289)"/>
</clipPath>
</defs>
</svg>
