<svg width="62" height="62" viewBox="0 0 62 62" fill="none" xmlns="http://www.w3.org/2000/svg">
<path d="M62 31C62 48.1208 48.1208 62 31 62C13.8792 62 0 48.1208 0 31C0 13.8792 13.8792 0 31 0C48.1208 0 62 13.8792 62 31Z" fill="white"/>
<path d="M9.84958 21.4062L7.6823 25.6222L5.07709 21.6565L9.84958 21.4062Z" fill="url(#paint0_linear_1284_278)"/>
<path d="M7.50759 25.6638L3 24.3886L3.52644 22.694L4.88174 21.8198L7.50759 25.6638Z" fill="url(#paint1_linear_1284_278)"/>
<path d="M10.0002 21.4417L12.6902 25.4793L7.81242 25.7663L10.0002 21.4417Z" fill="url(#paint2_linear_1284_278)"/>
<path d="M12.6063 22.2287L12.1667 24.3519L10.1358 21.462L12.6063 22.2287Z" fill="url(#paint3_linear_1284_278)"/>
<path d="M8.00346 25.9268L12.7724 25.6613L10.2642 29.8819V28.8976L8.00346 25.9268Z" fill="url(#paint4_linear_1284_278)"/>
<path d="M7.68271 25.7497L9.62249 28.2476L4.68489 26.2194L7.68271 25.7497Z" fill="url(#paint5_linear_1284_278)"/>
<path d="M3.07725 24.514L7.05571 25.7143L4.46097 26.074L3.07725 24.514Z" fill="url(#paint6_linear_1284_278)"/>
<path d="M5.34732 21.3395L10.0717 14.4801H13.7935L15.3841 20.8314L5.34732 21.3395Z" fill="url(#paint7_linear_1284_278)"/>
<path d="M12.2383 24.5032L12.7627 22.2754L13.6651 24.1341L12.8951 25.4679L12.2383 24.5032Z" fill="url(#paint8_linear_1284_278)"/>
<path d="M13.0404 22.1652L10.1399 21.3509L15.526 21.022L13.0404 22.1652Z" fill="url(#paint9_linear_1284_278)"/>
<path d="M15.5902 21.149L13.6853 23.8209L12.9838 22.3889L15.5902 21.149Z" fill="url(#paint10_linear_1284_278)"/>
<path d="M13.986 14.4801H21.0446L15.6544 20.8314L13.986 14.4801Z" fill="url(#paint11_linear_1284_278)"/>
<path d="M23.7177 14.4616L26.4155 20.7937H16.0088L21.233 14.4616H23.7177Z" fill="url(#paint12_linear_1284_278)"/>
<path d="M26.7014 20.812L23.9321 14.4801L30.0924 14.4801L26.7014 20.812Z" fill="url(#paint13_linear_1284_278)"/>
<path d="M21.0842 30.4185L15.5807 20.9836H26.5876L21.0842 30.4185Z" fill="url(#paint14_linear_1284_278)"/>
<path d="M15.6255 21.3847L16.9471 23.6226L13.9616 23.7487L15.6255 21.3847Z" fill="url(#paint15_linear_1284_278)"/>
<path d="M18.8431 26.8375L13.986 23.9436L17.0458 23.7932L18.8431 26.8375Z" fill="url(#paint16_linear_1284_278)"/>
<path d="M13.9215 24.0864L18.8237 26.9897L10.0378 30.5874L13.9215 24.0864Z" fill="url(#paint17_linear_1284_278)"/>
<path d="M12.4027 29.8503V33.0023L9.4295 31.0703L12.4027 29.8503Z" fill="url(#paint18_linear_1284_278)"/>
<path d="M12.7668 40.7746L11.7401 39.6313L10.3889 39.3543L13.1187 37.0978L12.7668 40.7746Z" fill="url(#paint19_linear_1284_278)"/>
<path d="M9.36075 31.1695L11.441 32.5465L9.42999 34.0423L8.97325 33.3241L8.85247 32.6059L8.97325 31.7557L9.36075 31.1695Z" fill="#EB4764"/>
<path d="M10.2438 36.4168L12.2534 37.6624L10.3017 39.2898L9.84781 38.5699L9.72985 37.8512L9.85398 37.0014L10.2438 36.4168Z" fill="#EB4764"/>
<path d="M11.5476 32.5814L12.0609 34.9313L11.0984 35.0584L10.2 34.8678L9.75084 34.5503L9.49414 34.1057L11.5476 32.5814Z" fill="#EB4764"/>
<path d="M12.3403 37.5406L10.2698 36.2833L10.8424 35.5071L11.4834 35.1219L12.0609 35.0584H12.6384L12.3403 37.5406Z" fill="#EB4764"/>
<path d="M12.5101 29.7868L14.6918 28.8341L12.5101 33.026V29.7868Z" fill="url(#paint20_linear_1284_278)"/>
<path d="M11.5732 32.6137L13.0789 33.5468L14.3881 34.9776L12.1624 34.9154L11.5732 32.6137Z" fill="#EB4764"/>
<path d="M15.0768 35.1219L13.8576 36.3922L12.4459 37.5354L12.7026 35.0584L15.0768 35.1219Z" fill="#EB4764"/>
<path d="M14.8843 28.7706L17.7935 32.8568L12.5743 33.0895L14.8843 28.7706Z" fill="url(#paint21_linear_1284_278)"/>
<path d="M19.7612 28.5165L17.9455 32.8382L14.9485 28.7706L19.7612 28.5165Z" fill="url(#paint22_linear_1284_278)"/>
<path d="M19.7612 28.453L18.9911 27.0557L14.9485 28.7071L19.7612 28.453Z" fill="url(#paint23_linear_1284_278)"/>
<path d="M12.5968 33.1821L16.2788 33.1202L19.2502 34.9776H14.4701L13.1136 33.4917L12.5968 33.1821Z" fill="url(#paint24_linear_1284_278)"/>
<path d="M15.0768 35.2489L15.0072 38.8372L12.8951 40.8381L13.2159 37.0273L13.9218 36.4557L15.0768 35.2489Z" fill="url(#paint25_linear_1284_278)"/>
<path d="M19.8346 28.5611L21.0415 30.4891L20.9145 31.4531L20.7874 32.2243L18.056 32.8669L19.8346 28.5611Z" fill="url(#paint26_linear_1284_278)"/>
<path d="M16.406 33.0493L17.9644 32.9624L20.7237 32.3273L19.9537 34.5503L19.3762 34.9314L16.406 33.0493Z" fill="url(#paint27_linear_1284_278)"/>
<path d="M15.2052 35.1219L18.5156 36.9404L15.141 38.7421L15.2052 35.1219Z" fill="url(#paint28_linear_1284_278)"/>
<path d="M15.2694 35.0584L19.2478 35.1219L18.542 36.8367L15.2694 35.0584Z" fill="url(#paint29_linear_1284_278)"/>
<path d="M16.3602 46.8718L16.8094 50.746L14.6919 49.73L13.3443 48.2056L12.7026 46.4907V44.6488L16.3602 46.8718Z" fill="url(#paint30_linear_1284_278)"/>
<path d="M14.8843 45.7921L12.7419 44.4942L13.2159 43.1245L13.4726 42.3624L13.4084 41.6637L13.9218 42.1083L14.8843 45.7921Z" fill="url(#paint31_linear_1284_278)"/>
<path d="M14.756 39.1867L13.9218 42.0448L13.4084 41.5367L12.9515 40.9257L13.6651 40.2665L14.756 39.1867Z" fill="url(#paint32_linear_1284_278)"/>
<path d="M20.4973 48.3173L19.0553 51H17.9003L16.9377 50.746L16.4885 46.9353L20.4973 48.3173Z" fill="url(#paint33_linear_1284_278)"/>
<path d="M26.7566 21.047L32.2232 30.4818H21.2901L26.7566 21.047Z" fill="url(#paint34_linear_1284_278)"/>
<path d="M22.6488 32.3908L20.082 34.4868L20.9162 32.2638L21.1729 30.5489H24.7022L22.6488 32.3908Z" fill="url(#paint35_linear_1284_278)"/>
<path d="M18.6745 37.0883L21.5533 44.716L20.5297 48.1485L16.4353 46.75L18.4185 42.4913L18.6745 37.0883Z" fill="url(#paint36_linear_1284_278)"/>
<path d="M18.2853 42.2989L16.2961 46.6813L15.0768 45.8556L14.0502 42.0448L14.9485 38.9962L18.542 37.0908L18.2853 42.2989Z" fill="url(#paint37_linear_1284_278)"/>
<path d="M37.8802 20.9532L32.4348 30.4168L26.8772 21.0173L37.8802 20.9532Z" fill="url(#paint38_linear_1284_278)"/>
<path d="M37.7986 20.7373L26.8839 20.8314L30.2207 14.4801H33.8142L37.7986 20.7373Z" fill="url(#paint39_linear_1284_278)"/>
<path d="M19.8253 36.5827L19.1836 38.1705L18.6703 36.9003L19.3762 35.1219L20.5312 34.2962L19.8253 36.5827Z" fill="url(#paint40_linear_1284_278)"/>
<path d="M27.0855 39.3175L21.6862 44.6488L19.2478 38.234L19.9537 36.5827L20.6595 34.2327L27.0855 39.3175Z" fill="url(#paint41_linear_1284_278)"/>
<path d="M29.0015 30.549L27.2048 39.2502L20.7391 34.1511L24.8947 30.549H29.0015Z" fill="url(#paint42_linear_1284_278)"/>
<path d="M29.1298 30.549H32.4024L33.3008 37.5989L27.3331 39.2502L29.1298 30.549Z" fill="url(#paint43_linear_1284_278)"/>
<path d="M27.2048 39.4408L30.3061 44.9437L20.7237 48.1421L21.7504 44.7759L27.2048 39.4408Z" fill="url(#paint44_linear_1284_278)"/>
<path d="M20.7161 48.298L30.3491 45.0299L24.9589 48.298L19.312 50.873L20.7161 48.298Z" fill="url(#paint45_linear_1284_278)"/>
<path d="M27.3579 39.423L33.3008 37.7894L34.5842 42.4894L30.4774 44.8394L27.3579 39.423Z" fill="url(#paint46_linear_1284_278)"/>
<path d="M32.595 30.5489L46.1988 32.3273L45.108 35.884L43.1829 39.1232L40.167 40.6475L34.8409 42.2989L33.4933 37.6624L32.595 30.5489Z" fill="url(#paint47_linear_1284_278)"/>
<path d="M38.1361 21.047L43.4505 23.8438L47.7405 27.022L47.0361 29.3103L46.2677 32.1071L32.7277 30.3591L38.1361 21.047Z" fill="url(#paint48_linear_1284_278)"/>
<path d="M38.1456 20.8887L34.0067 14.4801H42.0277L47.8029 26.9287L43.3752 23.626L38.1456 20.8887Z" fill="url(#paint49_linear_1284_278)"/>
<path d="M50.4339 14.4801V20.6409L47.8673 26.8652L42.156 14.4801H50.4339Z" fill="url(#paint50_linear_1284_278)"/>
<path d="M43.2296 39.2835L44.5842 48.1181L37.1323 50.0883L34.886 48.5631L33.474 48.3725L31.7411 48.5631L20.1885 50.597L25.1946 48.4358L30.5217 45.0673L34.7576 42.5249L40.1488 40.8089L43.2296 39.2835Z" fill="url(#paint51_linear_1284_278)"/>
<path d="M47.8763 27.0414L53.0291 41.8885L44.7844 47.9796L44.4623 45.8223L43.3902 39.1601L45.3642 36.1146L46.5236 32.3711L47.8763 27.0414Z" fill="url(#paint52_linear_1284_278)"/>
<path d="M47.9963 27.0492L50.6834 20.9563V14.546H54.9057L53.1785 20.6389L52.6664 25.2086L53.1785 29.5245L54.9057 34.475L56.6972 36.9502L59 38.7273L53.1785 41.9007L50.6834 34.475L47.9963 27.0492Z" fill="url(#paint53_linear_1284_278)"/>
<path d="M38.6987 11L40.2882 15.2521L44.5842 16.8255L40.2882 18.399L38.6987 22.6511L37.109 18.399L32.813 16.8255L37.109 15.2521L38.6987 11Z" fill="white"/>
<path d="M12.6063 22.2287L12.1667 24.3519L10.1358 21.462L12.6063 22.2287Z" fill="url(#paint54_linear_1284_278)"/>
<defs>
<linearGradient id="paint0_linear_1284_278" x1="62" y1="0" x2="-1.97029" y2="37.1239" gradientUnits="userSpaceOnUse">
<stop stop-color="#FFC7D0" stop-opacity="0.58"/>
<stop offset="1" stop-color="#FFB4C1"/>
</linearGradient>
<linearGradient id="paint1_linear_1284_278" x1="62" y1="62" x2="1.08853" y2="23.9492" gradientUnits="userSpaceOnUse">
<stop stop-color="#FFD9DF" stop-opacity="0.58"/>
<stop offset="1" stop-color="#FF7B92"/>
</linearGradient>
<linearGradient id="paint2_linear_1284_278" x1="27.8089" y1="-3.50758e-08" x2="33.1072" y2="79.855" gradientUnits="userSpaceOnUse">
<stop stop-color="#FFD9DF" stop-opacity="0.58"/>
<stop offset="1" stop-color="#FF7B92"/>
</linearGradient>
<linearGradient id="paint3_linear_1284_278" x1="58.1547" y1="11.772" x2="29.2255" y2="35.5521" gradientUnits="userSpaceOnUse">
<stop stop-color="#FFD9DF" stop-opacity="0.58"/>
<stop offset="1" stop-color="#FF7B92"/>
<stop offset="1" stop-color="#FF7189"/>
</linearGradient>
<linearGradient id="paint4_linear_1284_278" x1="-0.470123" y1="4.94203" x2="49.5776" y2="27.5278" gradientUnits="userSpaceOnUse">
<stop stop-color="#FF6079" stop-opacity="0.58"/>
<stop offset="0.0001" stop-color="#FB7F93" stop-opacity="0.619375"/>
<stop offset="1" stop-color="#FF3558"/>
</linearGradient>
<linearGradient id="paint5_linear_1284_278" x1="38.9794" y1="1.14351" x2="17.303" y2="26.4674" gradientUnits="userSpaceOnUse">
<stop stop-color="#FFD9DF" stop-opacity="0.58"/>
<stop offset="1" stop-color="#FF7B92"/>
</linearGradient>
<linearGradient id="paint6_linear_1284_278" x1="27.749" y1="-14.8528" x2="61.4037" y2="48.025" gradientUnits="userSpaceOnUse">
<stop stop-color="#FF667E" stop-opacity="0.58"/>
<stop offset="1" stop-color="#FF7B92"/>
</linearGradient>
<linearGradient id="paint7_linear_1284_278" x1="1.44274" y1="65.6192" x2="67.7893" y2="39.1701" gradientUnits="userSpaceOnUse">
<stop stop-color="#FFD9DF" stop-opacity="0.58"/>
<stop offset="1" stop-color="#FF7B92"/>
</linearGradient>
<linearGradient id="paint8_linear_1284_278" x1="-3.57771" y1="32.993" x2="53.9392" y2="12.9567" gradientUnits="userSpaceOnUse">
<stop stop-color="#FF6C84" stop-opacity="0.58"/>
<stop offset="1" stop-color="#FF7B92"/>
</linearGradient>
<linearGradient id="paint9_linear_1284_278" x1="31.1953" y1="62.1737" x2="26.4675" y2="2.83351" gradientUnits="userSpaceOnUse">
<stop stop-color="#FFD9DF" stop-opacity="0.58"/>
<stop offset="1" stop-color="#FF7B92"/>
</linearGradient>
<linearGradient id="paint10_linear_1284_278" x1="56.6886" y1="-4.77322" x2="5.62216" y2="52.0578" gradientUnits="userSpaceOnUse">
<stop stop-color="#FFD9DF" stop-opacity="0.58"/>
<stop offset="1" stop-color="#FF7B92"/>
</linearGradient>
<linearGradient id="paint11_linear_1284_278" x1="-2.6213" y1="4.99401" x2="45.9878" y2="30.5073" gradientUnits="userSpaceOnUse">
<stop stop-color="#FFD9DF" stop-opacity="0.58"/>
<stop offset="1" stop-color="#FF7B92"/>
</linearGradient>
<linearGradient id="paint12_linear_1284_278" x1="30.9999" y1="0" x2="30.9999" y2="62" gradientUnits="userSpaceOnUse">
<stop stop-color="#FFD9DF" stop-opacity="0.58"/>
<stop offset="1" stop-color="#FF7B92"/>
</linearGradient>
<linearGradient id="paint13_linear_1284_278" x1="22.8834" y1="61.3888" x2="30.8777" y2="-3.81569" gradientUnits="userSpaceOnUse">
<stop stop-color="#FFD9DF" stop-opacity="0.58"/>
<stop offset="1" stop-color="#FF7B92"/>
</linearGradient>
<linearGradient id="paint14_linear_1284_278" x1="31" y1="62" x2="31" y2="-20.6666" gradientUnits="userSpaceOnUse">
<stop stop-color="#FFD9DF" stop-opacity="0.58"/>
<stop offset="1" stop-color="#FF7B92"/>
</linearGradient>
<linearGradient id="paint15_linear_1284_278" x1="31" y1="0" x2="31" y2="62" gradientUnits="userSpaceOnUse">
<stop stop-color="#FFD9DF" stop-opacity="0.58"/>
<stop offset="1" stop-color="#FF7B92"/>
</linearGradient>
<linearGradient id="paint16_linear_1284_278" x1="67.6317" y1="46.2812" x2="-6.02868" y2="19.8896" gradientUnits="userSpaceOnUse">
<stop stop-color="#FFD9DF" stop-opacity="0.58"/>
<stop offset="1" stop-color="#FF7B92"/>
</linearGradient>
<linearGradient id="paint17_linear_1284_278" x1="30.9999" y1="0" x2="30.9999" y2="62" gradientUnits="userSpaceOnUse">
<stop stop-color="#FFD9DF" stop-opacity="0.58"/>
<stop offset="1" stop-color="#FF7B92"/>
</linearGradient>
<linearGradient id="paint18_linear_1284_278" x1="61.4649" y1="-0.327472" x2="33.8416" y2="44.7409" gradientUnits="userSpaceOnUse">
<stop stop-color="#FFD9DF" stop-opacity="0.58"/>
<stop offset="1" stop-color="#FF7B92"/>
</linearGradient>
<linearGradient id="paint19_linear_1284_278" x1="69.225" y1="52.6594" x2="43.7725" y2="11.1867" gradientUnits="userSpaceOnUse">
<stop stop-color="#FFD9DF" stop-opacity="0.58"/>
<stop offset="1" stop-color="#FF7B92"/>
</linearGradient>
<linearGradient id="paint20_linear_1284_278" x1="9.44099" y1="11.3427" x2="22.296" y2="55.5101" gradientUnits="userSpaceOnUse">
<stop stop-color="#FFD9DF" stop-opacity="0.58"/>
<stop offset="1" stop-color="#FF7B92"/>
</linearGradient>
<linearGradient id="paint21_linear_1284_278" x1="27.888" y1="-0.0326137" x2="32.3783" y2="60.8458" gradientUnits="userSpaceOnUse">
<stop stop-color="#FFD9DF" stop-opacity="0.58"/>
<stop offset="1" stop-color="#FF7B92"/>
</linearGradient>
<linearGradient id="paint22_linear_1284_278" x1="61.4784" y1="-0.79506" x2="16.464" y2="28.7383" gradientUnits="userSpaceOnUse">
<stop stop-color="#FFD9DF" stop-opacity="0.58"/>
<stop offset="1" stop-color="#FFADBB"/>
</linearGradient>
<linearGradient id="paint23_linear_1284_278" x1="62.3626" y1="39.3598" x2="0.673691" y2="37.6536" gradientUnits="userSpaceOnUse">
<stop stop-color="#FFD9DF" stop-opacity="0.58"/>
<stop offset="1" stop-color="#FF7B92"/>
</linearGradient>
<linearGradient id="paint24_linear_1284_278" x1="31" y1="0" x2="31" y2="62" gradientUnits="userSpaceOnUse">
<stop stop-color="#FFD9DF" stop-opacity="0.58"/>
<stop offset="1" stop-color="#FF7B92"/>
</linearGradient>
<linearGradient id="paint25_linear_1284_278" x1="61.151" y1="31.6216" x2="5.26175" y2="23.9029" gradientUnits="userSpaceOnUse">
<stop stop-color="#FFD9DF" stop-opacity="0.58"/>
<stop offset="1" stop-color="#FF7B92"/>
</linearGradient>
<linearGradient id="paint26_linear_1284_278" x1="31" y1="0" x2="31" y2="62" gradientUnits="userSpaceOnUse">
<stop stop-color="#FFD9DF" stop-opacity="0.58"/>
<stop offset="1" stop-color="#FF7B92"/>
</linearGradient>
<linearGradient id="paint27_linear_1284_278" x1="0.18587" y1="15.5029" x2="59.566" y2="22.0558" gradientUnits="userSpaceOnUse">
<stop stop-color="#FD758A" stop-opacity="0.58"/>
<stop offset="1" stop-color="#FC7A90"/>
</linearGradient>
<linearGradient id="paint28_linear_1284_278" x1="1.87284" y1="-0.366116" x2="28.0027" y2="49.1023" gradientUnits="userSpaceOnUse">
<stop stop-color="#FFD9DF" stop-opacity="0.58"/>
<stop offset="1" stop-color="#FF7B92"/>
</linearGradient>
<linearGradient id="paint29_linear_1284_278" x1="0.146599" y1="-1.22055" x2="61.5214" y2="6.18259" gradientUnits="userSpaceOnUse">
<stop stop-color="#FF8D9F" stop-opacity="0.58"/>
<stop offset="1" stop-color="#FF7B92"/>
</linearGradient>
<linearGradient id="paint30_linear_1284_278" x1="76.6715" y1="12.0312" x2="28.8732" y2="56.698" gradientUnits="userSpaceOnUse">
<stop stop-color="#FFD9DF" stop-opacity="0.58"/>
<stop offset="1" stop-color="#FF7B92"/>
</linearGradient>
<linearGradient id="paint31_linear_1284_278" x1="82.9639" y1="44.7121" x2="35.2426" y2="-13.1558" gradientUnits="userSpaceOnUse">
<stop stop-color="#FFD9DF" stop-opacity="0.58"/>
<stop offset="1" stop-color="#FF7B92"/>
</linearGradient>
<linearGradient id="paint32_linear_1284_278" x1="79.7728" y1="19.6745" x2="26.8678" y2="67.4657" gradientUnits="userSpaceOnUse">
<stop stop-color="#FFD9DF" stop-opacity="0.58"/>
<stop offset="1" stop-color="#FF7B92"/>
</linearGradient>
<linearGradient id="paint33_linear_1284_278" x1="62.6035" y1="26.034" x2="3.9059" y2="33.1891" gradientUnits="userSpaceOnUse">
<stop stop-color="#FFD9DF" stop-opacity="0.58"/>
<stop offset="1" stop-color="#FF7B92"/>
</linearGradient>
<linearGradient id="paint34_linear_1284_278" x1="31" y1="0" x2="31" y2="82.6669" gradientUnits="userSpaceOnUse">
<stop stop-color="#FFD9DF" stop-opacity="0.58"/>
<stop offset="1" stop-color="#FF7B92"/>
</linearGradient>
<linearGradient id="paint35_linear_1284_278" x1="57.8382" y1="35.271" x2="3.90488" y2="28.9071" gradientUnits="userSpaceOnUse">
<stop stop-color="#FFC8D0" stop-opacity="0.58"/>
<stop offset="1" stop-color="#FF99AB"/>
</linearGradient>
<linearGradient id="paint36_linear_1284_278" x1="31" y1="0" x2="31" y2="62" gradientUnits="userSpaceOnUse">
<stop stop-color="#FFD9DF" stop-opacity="0.58"/>
<stop offset="1" stop-color="#FF7B92"/>
</linearGradient>
<linearGradient id="paint37_linear_1284_278" x1="64.185" y1="30.7297" x2="0.231258" y2="35.2772" gradientUnits="userSpaceOnUse">
<stop stop-color="#FFD9DF" stop-opacity="0.58"/>
<stop offset="1" stop-color="#FF7B92"/>
</linearGradient>
<linearGradient id="paint38_linear_1284_278" x1="62" y1="0" x2="-3.90702" y2="33.5165" gradientUnits="userSpaceOnUse">
<stop stop-color="#FFD9DF" stop-opacity="0.58"/>
<stop offset="1" stop-color="#FF4C6B"/>
</linearGradient>
<linearGradient id="paint39_linear_1284_278" x1="59.3509" y1="69.0681" x2="2.31917" y2="50.1505" gradientUnits="userSpaceOnUse">
<stop stop-color="#FFD0D8" stop-opacity="0.58"/>
<stop offset="1" stop-color="#F9B6C2"/>
</linearGradient>
<linearGradient id="paint40_linear_1284_278" x1="47.4161" y1="32.8479" x2="26.1211" y2="10.7079" gradientUnits="userSpaceOnUse">
<stop stop-color="#FFD9DF" stop-opacity="0.58"/>
<stop offset="1" stop-color="#FF7B92"/>
</linearGradient>
<linearGradient id="paint41_linear_1284_278" x1="56.0519" y1="19.0216" x2="9.56304" y2="43.6137" gradientUnits="userSpaceOnUse">
<stop stop-color="#FAA4B2" stop-opacity="0.58"/>
<stop offset="0.6905" stop-color="#FFA0B0" stop-opacity="0.98483"/>
<stop offset="1" stop-color="#FF9FB0"/>
</linearGradient>
<linearGradient id="paint42_linear_1284_278" x1="61.5129" y1="-0.362769" x2="27.0051" y2="45.9824" gradientUnits="userSpaceOnUse">
<stop stop-color="#FFD9DF" stop-opacity="0.58"/>
<stop offset="1" stop-color="#FFA6B5"/>
</linearGradient>
<linearGradient id="paint43_linear_1284_278" x1="10.1235" y1="2.21696" x2="25.0718" y2="59.8171" gradientUnits="userSpaceOnUse">
<stop stop-color="#FFD9DF" stop-opacity="0.58"/>
<stop offset="1" stop-color="#FF7B92"/>
</linearGradient>
<linearGradient id="paint44_linear_1284_278" x1="17.815" y1="9.10402" x2="33.2722" y2="50.054" gradientUnits="userSpaceOnUse">
<stop stop-color="#FFD9DF" stop-opacity="0.58"/>
<stop offset="1" stop-color="#FF7B92"/>
</linearGradient>
<linearGradient id="paint45_linear_1284_278" x1="26.4202" y1="15.5167" x2="38.734" y2="27.4283" gradientUnits="userSpaceOnUse">
<stop stop-color="#FF677F" stop-opacity="0.58"/>
<stop offset="1" stop-color="#FF7B92"/>
</linearGradient>
<linearGradient id="paint46_linear_1284_278" x1="-1.05828" y1="17.6172" x2="62.9374" y2="38.4533" gradientUnits="userSpaceOnUse">
<stop stop-color="#FF7086" stop-opacity="0.58"/>
<stop offset="1" stop-color="#FF7B92"/>
</linearGradient>
<linearGradient id="paint47_linear_1284_278" x1="-1.64993" y1="2.46261" x2="52.5761" y2="38.7936" gradientUnits="userSpaceOnUse">
<stop stop-color="#FFD9DF" stop-opacity="0.58"/>
<stop offset="1" stop-color="#FF94A6"/>
</linearGradient>
<linearGradient id="paint48_linear_1284_278" x1="30.9996" y1="0" x2="30.9996" y2="62" gradientUnits="userSpaceOnUse">
<stop stop-color="#FFD9DF" stop-opacity="0.58"/>
<stop offset="1" stop-color="#FF7B92"/>
</linearGradient>
<linearGradient id="paint49_linear_1284_278" x1="9.13675" y1="21.5" x2="13.4777" y2="21.0903" gradientUnits="userSpaceOnUse">
<stop stop-color="#FCA2B0" stop-opacity="0.58"/>
<stop offset="1" stop-color="#FD8FA2"/>
</linearGradient>
<linearGradient id="paint50_linear_1284_278" x1="72.3037" y1="12.2367" x2="30.5079" y2="47.4308" gradientUnits="userSpaceOnUse">
<stop stop-color="#FFD9DF" stop-opacity="0.58"/>
<stop offset="1" stop-color="#FF98AA"/>
</linearGradient>
<linearGradient id="paint51_linear_1284_278" x1="31.0002" y1="0" x2="31.0002" y2="62" gradientUnits="userSpaceOnUse">
<stop stop-color="#FFD9DF" stop-opacity="0.58"/>
<stop offset="1" stop-color="#FF516F"/>
</linearGradient>
<linearGradient id="paint52_linear_1284_278" x1="31" y1="0" x2="31" y2="62" gradientUnits="userSpaceOnUse">
<stop stop-color="#FA677E" stop-opacity="0.58"/>
<stop offset="1" stop-color="#FF7B92"/>
</linearGradient>
<linearGradient id="paint53_linear_1284_278" x1="31.0011" y1="0" x2="31.0011" y2="62" gradientUnits="userSpaceOnUse">
<stop stop-color="#FFD9DF" stop-opacity="0.58"/>
<stop offset="1" stop-color="#FF2E52"/>
</linearGradient>
<linearGradient id="paint54_linear_1284_278" x1="31" y1="0" x2="31" y2="62" gradientUnits="userSpaceOnUse">
<stop stop-color="#FFACBA"/>
<stop offset="1" stop-color="#FF7B92"/>
</linearGradient>
</defs>
</svg>
