<svg width="51" height="51" viewBox="0 0 51 51" fill="none" xmlns="http://www.w3.org/2000/svg">
<g clip-path="url(#clip0_1037_444)">
<path d="M39.2034 0.571289H12.6409C6.16878 0.571289 0.922119 5.81795 0.922119 12.29V38.8525C0.922119 45.3246 6.16878 50.5713 12.6409 50.5713H39.2034C45.6755 50.5713 50.9221 45.3246 50.9221 38.8525V12.29C50.9221 5.81795 45.6755 0.571289 39.2034 0.571289Z" fill="white"/>
<path d="M39.2034 0.571289H12.6409C6.16878 0.571289 0.922119 5.81795 0.922119 12.29V38.8525C0.922119 45.3246 6.16878 50.5713 12.6409 50.5713H39.2034C45.6755 50.5713 50.9221 45.3246 50.9221 38.8525V12.29C50.9221 5.81795 45.6755 0.571289 39.2034 0.571289Z" fill="#1D9BF0"/>
<path d="M39.901 18.425C39.9225 18.735 39.9225 19.0449 39.9225 19.3578C39.9225 28.8885 32.667 39.8803 19.4 39.8803V39.8744C15.4807 39.8801 11.6426 38.7576 8.34399 36.641C8.91392 36.7096 9.48657 36.7437 10.0608 36.7451C13.3092 36.7477 16.4641 35.6581 19.0186 33.6516C17.5135 33.6231 16.0549 33.125 14.8468 32.227C13.6387 31.3289 12.7414 30.0758 12.2803 28.6428C13.3609 28.8511 14.475 28.8086 15.5366 28.5185C12.1717 27.8387 9.75083 24.8822 9.75083 21.4486V21.3572C10.7539 21.9159 11.8766 22.2255 13.0243 22.26C9.85513 20.1418 8.87817 15.9256 10.7918 12.6291C12.6026 14.8574 14.8619 16.6799 17.423 17.9781C19.984 19.2764 22.7895 20.0213 25.6573 20.1646C25.3713 18.9339 25.4136 17.6496 25.7797 16.4402C26.1459 15.2309 26.8232 14.1389 27.7438 13.2734C30.6489 10.5426 35.2178 10.6826 37.9487 13.5861C39.5639 13.2672 41.1129 12.6751 42.529 11.8351C41.9905 13.5052 40.8637 14.9228 39.3583 15.8242C40.7881 15.6558 42.1844 15.273 43.5002 14.6889C42.5323 16.1385 41.3134 17.4035 39.901 18.425Z" fill="white"/>
</g>
<defs>
<clipPath id="clip0_1037_444">
<rect width="50" height="50" fill="white" transform="translate(0.922119 0.571289)"/>
</clipPath>
</defs>
</svg>
